<svg width="32" height="20" viewBox="0 0 32 20" fill="none" xmlns="http://www.w3.org/2000/svg">
<path d="M30.9499 2.46719L22.9116 0.114336C22.6521 0.0385156 22.376 0 22.0909 0C21.8057 0 21.5295 0.0385156 21.2701 0.114336L13.2316 2.46719C13.0909 2.50875 13 2.60426 13 2.71133C13 2.81836 13.0909 2.91391 13.2317 2.95547L16.9527 4.04453V7.06125C16.9536 8.62102 17.5063 10.1192 18.5088 11.2793C18.9906 11.8361 19.5451 12.2782 20.1569 12.593C20.8059 12.9276 21.4787 13.0971 22.1568 13.0971C22.8344 13.0971 23.5074 12.9276 24.1567 12.593C25.0767 12.1187 25.8682 11.3569 26.4457 10.3903C27.0441 9.38707 27.3605 8.23582 27.3608 7.06125V4.00602L29.2027 3.4668V5.9743C28.9503 6.00492 28.7546 6.21238 28.7546 6.46258C28.7546 6.68031 28.9032 6.86898 29.1158 6.93176L28.7252 9.405C28.7156 9.46656 28.7342 9.52875 28.7765 9.57633C28.819 9.62336 28.8805 9.65062 28.9454 9.65062H30.4221C30.4869 9.65062 30.5485 9.62332 30.591 9.57602C30.6332 9.52902 30.6519 9.46652 30.6424 9.40469L30.2517 6.93176C30.4643 6.86898 30.6129 6.68035 30.6129 6.46258C30.6129 6.21238 30.4171 6.00492 30.1646 5.9743V3.18531L30.95 2.95543C31.0907 2.91387 31.1817 2.81805 31.1817 2.71129C31.1816 2.60457 31.0907 2.50871 30.9499 2.46719ZM22.1568 11.6356C21.7329 11.6356 21.3021 11.5246 20.8765 11.3053C20.2172 10.9675 19.6182 10.3848 19.1895 9.66426C18.9919 9.33309 18.8314 8.97277 18.712 8.59219C21.1904 8.17125 22.7224 6.66332 23.5867 5.4293C24.0037 6.24086 24.7128 7.25563 25.7943 7.72023C25.6673 8.69617 25.2558 9.62695 24.6328 10.3457C24.282 10.7521 23.8685 11.0839 23.4369 11.3056C23.0111 11.5246 22.5804 11.6356 22.1568 11.6356Z" fill="white"/>
<path d="M26.886 12.2746L26.8451 12.25L22.3453 16.0498L17.8453 12.25L17.8044 12.2746C16.3041 13.1744 14.7096 15.6204 14.7096 18.3811V18.4184L14.744 18.4359C14.7748 18.4518 17.8744 20 22.3453 20C26.8161 20 29.9157 18.4518 29.9464 18.436L29.9809 18.4184V18.3811C29.9809 15.6204 28.3863 13.1744 26.886 12.2746Z" fill="white"/>
<g clip-path="url(#clip0_83_289)">
<path d="M0.75 10.75H5.25V15.25C5.25 15.4489 5.32902 15.6397 5.46967 15.7803C5.61032 15.921 5.80109 16 6 16C6.19891 16 6.38968 15.921 6.53033 15.7803C6.67098 15.6397 6.75 15.4489 6.75 15.25V10.75H11.25C11.4489 10.75 11.6397 10.671 11.7803 10.5303C11.921 10.3897 12 10.1989 12 10C12 9.80109 11.921 9.61032 11.7803 9.46967C11.6397 9.32902 11.4489 9.25 11.25 9.25H6.75V4.75C6.75 4.55109 6.67098 4.36032 6.53033 4.21967C6.38968 4.07902 6.19891 4 6 4C5.80109 4 5.61032 4.07902 5.46967 4.21967C5.32902 4.36032 5.25 4.55109 5.25 4.75V9.25H0.75C0.551088 9.25 0.360322 9.32902 0.21967 9.46967C0.0790178 9.61032 0 9.80109 0 10C0 10.1989 0.0790178 10.3897 0.21967 10.5303C0.360322 10.671 0.551088 10.75 0.75 10.75Z" fill="white"/>
</g>
<defs>
<clipPath id="clip0_83_289">
<rect width="12" height="12" fill="white" transform="translate(0 4)"/>
</clipPath>
</defs>
</svg>
