<svg width="50" height="50" viewBox="0 0 50 50" fill="none" xmlns="http://www.w3.org/2000/svg">
<path d="M18.75 0H3.75C2.75584 0.0013229 1.80279 0.396836 1.09981 1.09981C0.396836 1.80279 0.0013229 2.75584 0 3.75V18.75C0.0013229 19.7442 0.396836 20.6972 1.09981 21.4002C1.80279 22.1032 2.75584 22.4987 3.75 22.5H18.75C19.7442 22.4987 20.6972 22.1032 21.4002 21.4002C22.1032 20.6972 22.4987 19.7442 22.5 18.75V3.75C22.4987 2.75584 22.1032 1.80279 21.4002 1.09981C20.6972 0.396836 19.7442 0.0013229 18.75 0ZM20 18.75C19.9993 19.0813 19.8674 19.3989 19.6332 19.6332C19.3989 19.8674 19.0813 19.9993 18.75 20H3.75C3.41868 19.9993 3.10112 19.8674 2.86685 19.6332C2.63257 19.3989 2.50066 19.0813 2.5 18.75V3.75C2.50066 3.41868 2.63257 3.10112 2.86685 2.86685C3.10112 2.63257 3.41868 2.50066 3.75 2.5H18.75C19.0813 2.50066 19.3989 2.63257 19.6332 2.86685C19.8674 3.10112 19.9993 3.41868 20 3.75V18.75ZM46.25 0H31.25C30.2558 0.0013229 29.3028 0.396836 28.5998 1.09981C27.8968 1.80279 27.5013 2.75584 27.5 3.75V18.75C27.5013 19.7442 27.8968 20.6972 28.5998 21.4002C29.3028 22.1032 30.2558 22.4987 31.25 22.5H46.25C47.2442 22.4987 48.1972 22.1032 48.9002 21.4002C49.6032 20.6972 49.9987 19.7442 50 18.75V3.75C49.9987 2.75584 49.6032 1.80279 48.9002 1.09981C48.1972 0.396836 47.2442 0.0013229 46.25 0ZM47.5 18.75C47.4993 19.0813 47.3674 19.3989 47.1332 19.6332C46.8989 19.8674 46.5813 19.9993 46.25 20H31.25C30.9187 19.9993 30.6011 19.8674 30.3668 19.6332C30.1326 19.3989 30.0007 19.0813 30 18.75V3.75C30.0007 3.41868 30.1326 3.10112 30.3668 2.86685C30.6011 2.63257 30.9187 2.50066 31.25 2.5H46.25C46.5813 2.50066 46.8989 2.63257 47.1332 2.86685C47.3674 3.10112 47.4993 3.41868 47.5 3.75V18.75ZM18.75 27.5H3.75C2.75584 27.5013 1.80279 27.8968 1.09981 28.5998C0.396836 29.3028 0.0013229 30.2558 0 31.25V46.25C0.0013229 47.2442 0.396836 48.1972 1.09981 48.9002C1.80279 49.6032 2.75584 49.9987 3.75 50H18.75C19.7442 49.9987 20.6972 49.6032 21.4002 48.9002C22.1032 48.1972 22.4987 47.2442 22.5 46.25V31.25C22.4987 30.2558 22.1032 29.3028 21.4002 28.5998C20.6972 27.8968 19.7442 27.5013 18.75 27.5ZM20 46.25C19.9993 46.5813 19.8674 46.8989 19.6332 47.1332C19.3989 47.3674 19.0813 47.4993 18.75 47.5H3.75C3.41868 47.4993 3.10112 47.3674 2.86685 47.1332C2.63257 46.8989 2.50066 46.5813 2.5 46.25V31.25C2.50066 30.9187 2.63257 30.6011 2.86685 30.3668C3.10112 30.1326 3.41868 30.0007 3.75 30H18.75C19.0813 30.0007 19.3989 30.1326 19.6332 30.3668C19.8674 30.6011 19.9993 30.9187 20 31.25V46.25ZM46.25 27.5H31.25C30.2558 27.5013 29.3028 27.8968 28.5998 28.5998C27.8968 29.3028 27.5013 30.2558 27.5 31.25V46.25C27.5013 47.2442 27.8968 48.1972 28.5998 48.9002C29.3028 49.6032 30.2558 49.9987 31.25 50H46.25C47.2442 49.9987 48.1972 49.6032 48.9002 48.9002C49.6032 48.1972 49.9987 47.2442 50 46.25V31.25C49.9987 30.2558 49.6032 29.3028 48.9002 28.5998C48.1972 27.8968 47.2442 27.5013 46.25 27.5ZM47.5 46.25C47.4993 46.5813 47.3674 46.8989 47.1332 47.1332C46.8989 47.3674 46.5813 47.4993 46.25 47.5H31.25C30.9187 47.4993 30.6011 47.3674 30.3668 47.1332C30.1326 46.8989 30.0007 46.5813 30 46.25V31.25C30.0007 30.9187 30.1326 30.6011 30.3668 30.3668C30.6011 30.1326 30.9187 30.0007 31.25 30H46.25C46.5813 30.0007 46.8989 30.1326 47.1332 30.3668C47.3674 30.6011 47.4993 30.9187 47.5 31.25V46.25Z" fill="white"/>
</svg>
