<svg width="50" height="50" viewBox="0 0 50 50" fill="none" xmlns="http://www.w3.org/2000/svg">
<path d="M20 0H2.5C1.83696 0 1.20107 0.263392 0.732233 0.732233C0.263392 1.20107 0 1.83696 0 2.5V20C0 20.663 0.263392 21.2989 0.732233 21.7678C1.20107 22.2366 1.83696 22.5 2.5 22.5H20C20.663 22.5 21.2989 22.2366 21.7678 21.7678C22.2366 21.2989 22.5 20.663 22.5 20V2.5C22.5 1.83696 22.2366 1.20107 21.7678 0.732233C21.2989 0.263392 20.663 0 20 0Z" fill="white"/>
<path d="M47.5 0H30C29.337 0 28.7011 0.263392 28.2322 0.732233C27.7634 1.20107 27.5 1.83696 27.5 2.5V20C27.5 20.663 27.7634 21.2989 28.2322 21.7678C28.7011 22.2366 29.337 22.5 30 22.5H47.5C48.163 22.5 48.7989 22.2366 49.2678 21.7678C49.7366 21.2989 50 20.663 50 20V2.5C50 1.83696 49.7366 1.20107 49.2678 0.732233C48.7989 0.263392 48.163 0 47.5 0Z" fill="white"/>
<path d="M20 27.5H2.5C1.83696 27.5 1.20107 27.7634 0.732233 28.2322C0.263392 28.7011 0 29.337 0 30V47.5C0 48.163 0.263392 48.7989 0.732233 49.2678C1.20107 49.7366 1.83696 50 2.5 50H20C20.663 50 21.2989 49.7366 21.7678 49.2678C22.2366 48.7989 22.5 48.163 22.5 47.5V30C22.5 29.337 22.2366 28.7011 21.7678 28.2322C21.2989 27.7634 20.663 27.5 20 27.5Z" fill="white"/>
<path d="M47.5 27.5H30C29.337 27.5 28.7011 27.7634 28.2322 28.2322C27.7634 28.7011 27.5 29.337 27.5 30V47.5C27.5 48.163 27.7634 48.7989 28.2322 49.2678C28.7011 49.7366 29.337 50 30 50H47.5C48.163 50 48.7989 49.7366 49.2678 49.2678C49.7366 48.7989 50 48.163 50 47.5V30C50 29.337 49.7366 28.7011 49.2678 28.2322C48.7989 27.7634 48.163 27.5 47.5 27.5Z" fill="white"/>
</svg>
