<svg width="120" height="120" viewBox="0 0 120 120" fill="none" xmlns="http://www.w3.org/2000/svg">
  <path d="M60.434 0C76.1968 0 91.3141 6.26177 102.46 17.4078C113.606 28.5538 119.868 43.6711 119.868 59.434C119.868 75.1968 113.606 90.3141 102.46 101.46C91.3141 112.606 76.1968 118.868 60.434 118.868C44.6711 118.868 29.5538 112.606 18.4078 101.46C7.26177 90.3141 1 75.1968 1 59.434C1 43.6711 7.26177 28.5538 18.4078 17.4078C29.5538 6.26177 44.6711 0 60.434 0ZM53.0302 71.1594L39.8274 57.9481C39.354 57.4748 38.7921 57.0993 38.1737 56.8432C37.5553 56.587 36.8925 56.4552 36.2231 56.4552C35.5537 56.4552 34.8909 56.587 34.2725 56.8432C33.6541 57.0993 33.0922 57.4748 32.6189 57.9481C31.663 58.904 31.1259 60.2005 31.1259 61.5524C31.1259 62.9042 31.663 64.2007 32.6189 65.1566L49.4302 81.9679C49.9022 82.4436 50.4637 82.8212 51.0823 83.0788C51.7008 83.3365 52.3643 83.4691 53.0344 83.4691C53.7045 83.4691 54.368 83.3365 54.9866 83.0788C55.6052 82.8212 56.1667 82.4436 56.6387 81.9679L91.45 47.1481C91.9296 46.6768 92.3112 46.1151 92.5727 45.4955C92.8342 44.876 92.9704 44.2108 92.9736 43.5383C92.9767 42.8658 92.8467 42.1994 92.5909 41.5775C92.3352 40.9555 91.9589 40.3903 91.4836 39.9145C91.0084 39.4387 90.4437 39.0617 89.822 38.8053C89.2004 38.5488 88.5341 38.418 87.8616 38.4203C87.1891 38.4227 86.5238 38.5581 85.9039 38.8189C85.284 39.0796 84.7219 39.4605 84.25 39.9396L53.0302 71.1594Z" fill="#9DD6AD"/>
</svg>
