<svg width="50" height="50" viewBox="0 0 50 50" fill="none" xmlns="http://www.w3.org/2000/svg">
<path d="M47.5 0H2.5C1.83696 0 1.20107 0.263392 0.732233 0.732233C0.263392 1.20107 0 1.83696 0 2.5V47.5C0 48.163 0.263392 48.7989 0.732233 49.2678C1.20107 49.7366 1.83696 50 2.5 50H47.5C48.163 50 48.7989 49.7366 49.2678 49.2678C49.7366 48.7989 50 48.163 50 47.5V2.5C50 1.83696 49.7366 1.20107 49.2678 0.732233C48.7989 0.263392 48.163 0 47.5 0ZM45 5V15H5V5H45ZM45 20V30H5V20H45ZM5 45V35H45V45H5Z" fill="white"/>
</svg>
